<svg xmlns="http://www.w3.org/2000/svg" viewBox="0 0 600 500">
  <defs>
    <filter id="dropShadow" x="-5%" y="-5%" width="110%" height="110%">
      <feDropShadow dx="3" dy="3" stdDeviation="2" flood-color="#000" flood-opacity="0.2"/>
    </filter>
  </defs>

  <rect width="100%" height="100%" fill="#ffffff" />
  
  <text x="300" y="40" font-family="Arial, sans-serif" font-size="20" font-weight="bold" text-anchor="middle" fill="#333">Project Technology Stack</text>

  <!-- LAYER 1: USER INTERFACE -->
  <g transform="translate(100, 80)">
    <rect x="0" y="0" width="400" height="80" rx="5" fill="#e3f2fd" stroke="#1976d2" stroke-width="2" filter="url(#dropShadow)"/>
    <text x="200" y="30" font-family="Arial, sans-serif" font-size="16" font-weight="bold" text-anchor="middle" fill="#0d47a1">User Interface</text>
    
    <!-- Item: Tkinter -->
    <rect x="150" y="40" width="100" height="30" rx="3" fill="#ffffff" stroke="#1976d2" stroke-width="1"/>
    <text x="200" y="60" font-family="Arial, sans-serif" font-size="14" text-anchor="middle" fill="#333">Tkinter</text>
  </g>

  <!-- LAYER 2: CORE LOGIC -->
  <g transform="translate(100, 190)">
    <rect x="0" y="0" width="400" height="100" rx="5" fill="#f3e5f5" stroke="#7b1fa2" stroke-width="2" filter="url(#dropShadow)"/>
    <text x="200" y="30" font-family="Arial, sans-serif" font-size="16" font-weight="bold" text-anchor="middle" fill="#4a148c">Core Application Logic</text>

    <!-- Items -->
    <g transform="translate(40, 45)">
       <!-- Python -->
       <rect x="0" y="0" width="80" height="35" rx="3" fill="#ffffff" stroke="#7b1fa2" stroke-width="1"/>
       <text x="40" y="22" font-family="Arial, sans-serif" font-size="13" text-anchor="middle" fill="#333">Python</text>
       
       <!-- Threading -->
       <rect x="120" y="0" width="80" height="35" rx="3" fill="#ffffff" stroke="#7b1fa2" stroke-width="1"/>
       <text x="160" y="22" font-family="Arial, sans-serif" font-size="13" text-anchor="middle" fill="#333">Threading</text>
       
       <!-- JSON -->
       <rect x="240" y="0" width="80" height="35" rx="3" fill="#ffffff" stroke="#7b1fa2" stroke-width="1"/>
       <text x="280" y="22" font-family="Arial, sans-serif" font-size="13" text-anchor="middle" fill="#333">JSON</text>
    </g>
  </g>

  <!-- LAYER 3: ANALYSIS & EXPLOITATION -->
  <g transform="translate(100, 320)">
    <rect x="0" y="0" width="400" height="100" rx="5" fill="#e8f5e9" stroke="#388e3c" stroke-width="2" filter="url(#dropShadow)"/>
    <text x="200" y="30" font-family="Arial, sans-serif" font-size="16" font-weight="bold" text-anchor="middle" fill="#1b5e20">Analysis &amp; Interaction</text>

    <!-- Items -->
    <g transform="translate(40, 45)">
       <!-- pwntools -->
       <rect x="0" y="0" width="80" height="35" rx="3" fill="#ffffff" stroke="#388e3c" stroke-width="1"/>
       <text x="40" y="22" font-family="Arial, sans-serif" font-size="13" text-anchor="middle" fill="#333">pwntools</text>
       
       <!-- Subprocess -->
       <rect x="120" y="0" width="90" height="35" rx="3" fill="#ffffff" stroke="#388e3c" stroke-width="1"/>
       <text x="165" y="22" font-family="Arial, sans-serif" font-size="13" text-anchor="middle" fill="#333">Subprocess</text>
       
       <!-- Binutils -->
       <rect x="240" y="0" width="80" height="35" rx="3" fill="#ffffff" stroke="#388e3c" stroke-width="1"/>
       <text x="280" y="22" font-family="Arial, sans-serif" font-size="13" text-anchor="middle" fill="#333">Binutils</text>
    </g>
  </g>
  
  <!-- Connections -->
  <line x1="300" y1="160" x2="300" y2="190" stroke="#555" stroke-width="2" stroke-dasharray="4"/>
  <line x1="300" y1="290" x2="300" y2="320" stroke="#555" stroke-width="2" stroke-dasharray="4"/>

</svg>
